<svg width="1200" height="334" xmlns="http://www.w3.org/2000/svg" xmlns:xlink="http://www.w3.org/1999/xlink" xml:space="preserve" overflow="hidden"><defs><clipPath id="clip0"><rect x="2141" y="236" width="1200" height="334"/></clipPath></defs><g clip-path="url(#clip0)" transform="translate(-2141 -236)"><rect x="2143.5" y="238.5" width="1195" height="329" stroke="#2F528F" stroke-width="4.58333" stroke-miterlimit="8" fill="#0033A0"/><path d="M2373.24 411.958 2371.27 468.266 2399.53 468.266C2408.06 468.266 2414.32 467.816 2418.29 466.915 2422.27 466.015 2426.1 464.463 2429.79 462.259 2433.47 460.055 2436.37 456.749 2438.48 452.34 2440.59 447.93 2441.65 443.223 2441.65 438.216 2441.65 434.196 2440.91 430.567 2439.43 427.33 2437.96 424.093 2435.79 421.275 2432.92 418.878 2430.05 416.481 2426.65 414.728 2422.74 413.62 2418.82 412.512 2412.97 411.958 2405.19 411.958ZM3228.9 379.868C3224.33 379.868 3219.49 380.26 3214.39 381.046 3209.29 381.831 3203.73 383.137 3197.71 384.965 3197.2 397.107 3196.83 405.144 3196.61 409.076 3196.39 413.008 3196.28 418.088 3196.28 424.317 3196.28 436.515 3197.61 445.746 3200.29 452.011 3202.96 458.277 3206.9 462.976 3212.12 466.109 3217.34 469.243 3223.33 470.809 3230.09 470.809 3237.88 470.809 3244.56 468.86 3250.14 464.961 3255.71 461.062 3260.09 454.996 3263.27 446.763 3266.45 438.53 3268.04 429.944 3268.04 421.006 3268.04 408.572 3264.8 398.607 3258.32 391.112 3251.85 383.616 3242.04 379.868 3228.9 379.868ZM2741.59 363.043C2740.65 377.167 2739.82 390.969 2739.07 404.45 2738.33 417.93 2737.74 432.405 2737.31 447.872 2736.87 463.34 2736.65 476.758 2736.65 488.126 2729.89 487.967 2725.49 487.887 2723.43 487.887 2721.48 487.887 2716.88 487.967 2709.62 488.126L2711.73 455.48 2714.07 404.62 2715.11 363.047 2728.34 363.193ZM3093.48 360.251C3100.71 360.251 3107.59 360.938 3114.12 362.311 3120.66 363.685 3126.15 365.958 3130.61 369.129 3135.06 372.301 3138.03 375.978 3139.51 380.159 3140.99 384.341 3141.73 388.725 3141.73 393.311 3141.73 398.496 3141.3 407.647 3140.44 420.764 3139.59 433.882 3138.94 445.699 3138.52 456.215 3138.09 466.73 3137.88 477.367 3137.88 488.126 3131.85 487.967 3127.53 487.887 3124.91 487.887 3122.43 487.887 3118.03 487.967 3111.7 488.126L3114.21 453.022 3115.98 417.346C3115.73 419.254 3114.92 420.642 3113.54 421.513 3112.15 422.383 3110.53 423.221 3108.67 424.026 3106.81 424.832 3104.77 425.591 3102.55 426.304 3100.33 427.016 3096.24 428.194 3090.26 429.836 3084.29 431.478 3080.18 432.688 3077.92 433.465 3072.37 435.239 3068.08 436.958 3065.06 438.622 3062.04 440.286 3059.55 442.065 3057.59 443.957 3055.62 445.849 3054.36 446.898 3053.79 447.103 3052.76 450.837 3052.24 453.938 3052.24 456.405 3052.24 460.164 3053.34 463.423 3055.55 466.181 3057.75 468.94 3060.55 470.865 3063.97 471.957 3067.38 473.049 3071.68 473.594 3076.86 473.594 3080.18 473.594 3083.55 473.379 3086.97 472.948 3090.39 472.518 3096.21 471.32 3104.44 469.356 3103.25 474.515 3101.86 480.692 3100.26 487.887 3093.31 489.246 3087.98 490.069 3084.27 490.357 3080.57 490.646 3077.03 490.79 3073.67 490.79 3062.44 490.79 3053.58 489.444 3047.11 486.753 3040.64 484.062 3035.78 479.918 3032.53 474.321 3029.28 468.724 3027.66 462.634 3027.66 456.049 3027.66 452.168 3028.24 448.61 3029.38 445.375 3030.53 442.14 3032.08 439.208 3034.03 436.579 3035.98 433.951 3038.73 431.337 3042.29 428.738 3045.85 426.139 3049.56 424.005 3053.44 422.338 3057.31 420.67 3061.68 419.07 3066.55 417.537 3071.42 416.003 3079.1 413.972 3089.59 411.441 3093.53 410.544 3096.63 409.711 3098.9 408.941 3101.17 408.171 3103.24 407.398 3105.1 406.622 3106.96 405.846 3108.53 404.977 3109.81 404.013 3111.1 403.049 3112.24 401.916 3113.24 400.613 3114.24 399.31 3114.99 397.966 3115.47 396.582 3115.95 395.197 3116.19 393.87 3116.19 392.6 3116.19 389.39 3115.1 386.59 3112.92 384.201 3110.73 381.812 3107.77 380.109 3104.03 379.092 3100.3 378.075 3095.78 377.567 3090.48 377.567 3085.57 377.567 3080.42 377.977 3075.04 378.796 3069.66 379.615 3065.08 380.577 3061.28 381.682 3057.49 382.787 3051.57 384.524 3043.53 386.891 3044.26 381.561 3045.09 374.994 3046.02 367.191 3056.77 364.413 3065.69 362.562 3072.8 361.638 3079.91 360.713 3086.8 360.251 3093.48 360.251ZM2839.42 360.251C2846.36 360.251 2853.18 361.131 2859.89 362.893 2866.59 364.655 2872.14 367.556 2876.51 371.598 2880.89 375.639 2883.82 380.162 2885.31 385.168 2886.79 390.173 2887.53 395.461 2887.53 401.031 2887.53 401.142 2887.49 402.931 2887.39 406.397 2887.3 409.863 2887.13 413.944 2886.89 418.639L2884.49 468.49C2884.33 473.159 2884.2 479.705 2884.1 488.126 2878.81 487.967 2874.63 487.887 2871.55 487.887 2867.74 487.887 2863.29 487.967 2858.23 488.126 2859.03 476.714 2859.62 466.589 2860.02 457.752L2861.55 430.249C2862.02 420.749 2862.26 413.622 2862.26 408.868 2862.26 402.347 2861.19 397.21 2859.05 393.46 2856.91 389.709 2853.42 386.789 2848.59 384.698 2843.75 382.608 2838.27 381.563 2832.15 381.563 2823.51 381.563 2816.1 383.616 2809.91 387.722 2804.33 391.472 2799.79 397.268 2796.28 405.11 2794.45 409.356 2793.05 416.724 2792.09 427.214 2790.89 439.338 2790.03 459.642 2789.51 488.126 2783.4 487.967 2779.16 487.887 2776.79 487.887 2774.41 487.887 2769.91 487.967 2763.29 488.126 2767.15 436.788 2769.17 395.095 2769.34 363.047L2779.99 363.155C2785.51 363.155 2790.6 363.115 2795.26 363.036L2794.13 379.792 2798.9 374.124C2801 372.023 2803.47 370.072 2806.32 368.269 2809.17 366.467 2812.48 364.97 2816.26 363.778 2820.04 362.586 2823.89 361.7 2827.82 361.12 2831.75 360.541 2835.61 360.251 2839.42 360.251ZM2634.48 360.251C2641.71 360.251 2648.59 360.938 2655.12 362.311 2661.66 363.685 2667.15 365.958 2671.61 369.129 2676.06 372.301 2679.03 375.978 2680.51 380.159 2681.99 384.341 2682.73 388.725 2682.73 393.311 2682.73 398.496 2682.3 407.647 2681.44 420.764 2680.59 433.882 2679.94 445.699 2679.52 456.215 2679.09 466.73 2678.88 477.367 2678.88 488.126 2672.85 487.967 2668.53 487.887 2665.91 487.887 2663.43 487.887 2659.03 487.967 2652.7 488.126L2655.21 453.022 2656.98 417.346C2656.73 419.254 2655.92 420.642 2654.54 421.513 2653.15 422.383 2651.53 423.221 2649.67 424.026 2647.81 424.832 2645.77 425.591 2643.55 426.304 2641.33 427.016 2637.24 428.194 2631.26 429.836 2625.29 431.478 2621.18 432.688 2618.92 433.465 2613.37 435.239 2609.08 436.958 2606.06 438.622 2603.04 440.286 2600.55 442.065 2598.59 443.957 2596.62 445.849 2595.36 446.898 2594.79 447.103 2593.76 450.837 2593.24 453.938 2593.24 456.405 2593.24 460.164 2594.34 463.423 2596.55 466.181 2598.75 468.94 2601.55 470.865 2604.97 471.957 2608.38 473.049 2612.68 473.594 2617.86 473.594 2621.18 473.594 2624.55 473.379 2627.97 472.948 2631.39 472.518 2637.21 471.32 2645.44 469.356 2644.25 474.515 2642.86 480.692 2641.26 487.887 2634.31 489.246 2628.98 490.069 2625.27 490.357 2621.57 490.646 2618.03 490.79 2614.67 490.79 2603.44 490.79 2594.58 489.444 2588.11 486.753 2581.64 484.062 2576.78 479.918 2573.53 474.321 2570.28 468.724 2568.66 462.634 2568.66 456.049 2568.66 452.168 2569.24 448.61 2570.38 445.375 2571.53 442.14 2573.08 439.208 2575.03 436.579 2576.98 433.951 2579.73 431.337 2583.29 428.738 2586.85 426.139 2590.56 424.005 2594.44 422.338 2598.31 420.67 2602.68 419.07 2607.55 417.537 2612.42 416.003 2620.1 413.972 2630.59 411.441 2634.53 410.544 2637.63 409.711 2639.9 408.941 2642.17 408.171 2644.24 407.398 2646.1 406.622 2647.96 405.846 2649.53 404.977 2650.81 404.013 2652.1 403.049 2653.24 401.916 2654.24 400.613 2655.24 399.31 2655.99 397.966 2656.47 396.582 2656.95 395.197 2657.19 393.87 2657.19 392.6 2657.19 389.39 2656.1 386.59 2653.92 384.201 2651.73 381.812 2648.77 380.109 2645.03 379.092 2641.3 378.075 2636.78 377.567 2631.48 377.567 2626.57 377.567 2621.43 377.977 2616.04 378.796 2610.66 379.615 2606.08 380.577 2602.28 381.682 2598.49 382.787 2592.57 384.524 2584.53 386.891 2585.26 381.561 2586.09 374.994 2587.02 367.191 2597.77 364.413 2606.69 362.562 2613.8 361.638 2620.91 360.713 2627.8 360.251 2634.48 360.251ZM2551.62 360.251C2555.13 360.251 2559.24 360.835 2563.94 362.005 2564.04 368.355 2564.34 375.641 2564.85 383.864 2557.98 382.492 2552.74 381.805 2549.13 381.805 2544.86 381.805 2541.01 382.514 2537.6 383.932 2534.19 385.35 2531.1 387.514 2528.34 390.425 2525.58 393.335 2523.17 397.157 2521.11 401.89 2519.91 404.535 2518.9 408.592 2518.08 414.062 2517.26 419.531 2516.6 429.751 2516.12 444.721 2515.84 453.952 2515.7 464.962 2515.7 477.751L2515.7 488.126C2509.68 487.967 2505.39 487.887 2502.86 487.887 2500.54 487.887 2496.14 487.967 2489.65 488.126 2492.47 440.768 2493.88 403.532 2493.88 376.417L2493.76 363.036C2498.15 363.115 2502.28 363.155 2506.18 363.155 2510.33 363.155 2514.55 363.115 2518.84 363.036L2518.02 379.695 2518.63 377.014C2519.2 375.295 2520.09 373.764 2521.3 372.423 2523.72 369.74 2526.47 367.52 2529.54 365.762 2532.62 364.005 2536.05 362.647 2539.83 361.689 2543.61 360.73 2547.54 360.251 2551.62 360.251ZM2376.01 340.755 2374.05 392.219 2392.95 392.219C2402.59 392.219 2409.04 392.015 2412.3 391.607 2415.57 391.199 2419.1 390.24 2422.89 388.73 2426.68 387.221 2429.78 385.043 2432.19 382.198 2434.6 379.353 2436.38 376.221 2437.52 372.802 2438.65 369.383 2439.22 365.954 2439.22 362.516 2439.22 358.931 2438.64 355.8 2437.48 353.122 2436.32 350.445 2434.57 348.152 2432.24 346.245 2429.9 344.337 2427.11 342.945 2423.86 342.069 2420.62 341.193 2415.52 340.755 2408.57 340.755ZM2923.1 321.262C2928.55 321.339 2934.35 321.378 2940.51 321.378L2951.56 321.268 2947.7 399.192 2944.89 467.432 2964.9 467.538C2983.08 467.538 2995.21 467.485 3001.29 467.38 3007.37 467.275 3014.53 467.011 3022.76 466.588 3022.25 473.485 3021.8 480.665 3021.41 488.126 3001.86 487.967 2985.2 487.887 2971.43 487.887L2915.95 488.126C2917.78 465.904 2919.34 440.083 2920.65 410.664 2921.95 381.246 2922.77 351.445 2923.1 321.262ZM3175.2 321.259C3180.06 321.338 3184.6 321.378 3188.82 321.378 3192.9 321.378 3197.26 321.338 3201.92 321.259 3200.79 333.238 3199.82 347.769 3198.99 364.852 3205.33 363.077 3211.22 361.867 3216.66 361.22 3222.11 360.574 3227.4 360.251 3232.53 360.251 3242.73 360.251 3251.82 361.582 3259.8 364.246 3267.79 366.909 3274.38 371.328 3279.59 377.503 3284.8 383.677 3288.48 390.433 3290.62 397.769 3292.76 405.105 3293.83 412.811 3293.83 420.887 3293.83 430.126 3292.55 439.092 3289.98 447.784 3287.42 456.477 3283.51 464.241 3278.25 471.077 3273 477.913 3266.6 482.908 3259.06 486.06 3251.52 489.213 3243.28 490.79 3234.35 490.79 3229.46 490.79 3224.93 490.277 3220.75 489.251 3216.58 488.226 3212.78 486.793 3209.36 484.952 3205.94 483.111 3203.01 480.99 3200.57 478.59 3198.13 476.189 3196.16 473.849 3194.66 471.569L3194.05 469.756 3193.87 488.126C3187.55 487.967 3183.47 487.887 3181.64 487.887 3180.32 487.887 3175.98 487.967 3168.62 488.126L3169.71 471.984C3169.86 469.749 3170.09 465.305 3170.41 458.651L3173.72 378.358ZM2187.93 321.259C2193.24 321.338 2198.68 321.378 2204.26 321.378 2209.15 321.378 2213.84 321.342 2218.34 321.272 2225.18 332.806 2232.64 344.371 2240.7 355.966 2248.77 367.561 2254.1 376.099 2256.69 381.58L2293.19 334.153C2293.79 333.696 2294.87 332.301 2296.44 329.966 2298 327.631 2299.96 324.734 2302.32 321.274 2306.3 321.343 2311.77 321.378 2318.72 321.378L2331.19 321.259C2324.03 332.751 2314.7 345.724 2303.18 360.178 2291.66 374.632 2280.75 388.474 2270.44 401.704 2276.41 410.809 2283.56 421.648 2291.88 434.22L2325.61 488.126C2317.86 487.967 2312.74 487.887 2310.25 487.887 2306.56 487.887 2301.59 487.967 2295.36 488.126L2288.64 476.875C2287.41 474.817 2285.34 471.409 2282.42 466.652L2254.23 421.182 2227.31 456.988C2217.96 468.695 2210.02 479.074 2203.49 488.126 2196.89 487.967 2192.26 487.887 2189.62 487.887 2186.79 487.887 2181.67 487.967 2174.25 488.126L2201.71 450.602 2240.11 401.53 2208.18 354.103ZM2413.69 321.022C2422.45 321.022 2429.25 321.484 2434.08 322.408 2438.91 323.332 2443.22 324.805 2447.02 326.828 2450.81 328.851 2454.04 331.433 2456.71 334.575 2459.38 337.717 2461.51 341.556 2463.11 346.091 2464.7 350.627 2465.5 355.581 2465.5 360.955 2465.5 365.118 2464.97 369.212 2463.91 373.235 2462.86 377.258 2461.24 381.003 2459.07 384.469 2456.9 387.934 2454.38 390.939 2451.5 393.481 2448.62 396.024 2445.92 397.967 2443.4 399.308 2442.14 399.979 2440.8 400.456 2439.38 400.738L2437.44 400.986 2439.02 401.124C2440.37 401.321 2441.69 401.675 2442.99 402.186 2445.6 403.208 2448.17 404.555 2450.72 406.225 2453.27 407.895 2455.68 409.995 2457.96 412.525 2460.23 415.056 2462.06 417.725 2463.45 420.533 2464.83 423.341 2465.9 426.516 2466.66 430.059 2467.42 433.603 2467.8 437.235 2467.8 440.958 2467.8 446.204 2467 451.274 2465.4 456.169 2463.79 461.064 2461.49 465.414 2458.48 469.219 2455.47 473.024 2451.92 476.196 2447.84 478.734 2443.77 481.273 2439.72 483.192 2435.69 484.491 2431.67 485.79 2426.51 486.721 2420.2 487.283 2413.89 487.845 2405.48 488.126 2394.96 488.126L2364.73 488.007 2343.56 488.126C2344.89 470.174 2345.81 456.192 2346.32 446.182 2346.83 436.171 2347.53 416.882 2348.43 388.313 2349.32 359.745 2349.77 341.932 2349.77 334.876L2349.65 321.26C2360.34 321.417 2369.38 321.495 2376.77 321.495 2382.65 321.495 2389.52 321.416 2397.38 321.259 2405.25 321.101 2410.68 321.022 2413.69 321.022ZM2715.56 320.294C2720.9 320.453 2725.54 320.532 2729.48 320.532 2734.13 320.532 2738.78 320.453 2743.41 320.294 2743.22 324.567 2742.94 331.791 2742.57 341.964 2736.62 341.884 2732.14 341.844 2729.12 341.844 2726.07 341.844 2721.43 341.884 2715.2 341.964 2715.44 332.884 2715.56 325.661 2715.56 320.294Z" stroke="#E7E6E6" stroke-width="3" stroke-linejoin="round" stroke-miterlimit="10" fill="#E7E6E6" fill-rule="evenodd"/><text fill="#000000" fill-opacity="0" font-family="Arial,Arial_MSFontService,sans-serif" font-size="170.496" x="2174.25" y="469.478">XBrainLab</text></g></svg>